{"title":"[MARATHI] Gopala Re Gopala 1CD VCDRip XViD (Marathi Play)","uid":7137012,"size":733454336,"categoryP":"video","categoryS":"movies","magnet":"?xt=urn:btih:d3b11422d9f1e8c3a5703aa2a7050deca6d903f8&amp;dn=%5BMARATHI%5D+Gopala+Re+Gopala+1CD+VCDRip+XViD+%28Marathi+Play%29&amp;tr=udp%3A%2F%2Ftracker.openbittorrent.com%3A80&amp;tr=udp%3A%2F%2Fopen.demonii.com%3A1337&amp;tr=udp%3A%2F%2Ftracker.coppersurfer.tk%3A6969&amp;tr=udp%3A%2F%2Fexodus.desync.com%3A6969","seeders":0,"leechers":1,"uploader":"JonamS","files":1,"time":1332881742,"description":" &lt;a href=&quot;\nhttp://img526.imageshack.us/img526/8782/rrgbannercopy.jpg&quot; rel=&quot;nofollow&quot; target=&quot;_NEW&quot;&gt;\nhttp://img526.imageshack.us/img526/8782/rrgbannercopy.jpg&lt;/a&gt;\n &lt;a href=&quot;\nhttp://desibbrg.org/images/49676089417438321079.jpg&quot; rel=&quot;nofollow&quot; target=&quot;_NEW&quot;&gt;\nhttp://desibbrg.org/images/49676089417438321079.jpg&lt;/a&gt;\n &lt;a href=&quot;\nhttp://desibbrg.org/images/25820414740435966725.jpg&quot; rel=&quot;nofollow&quot; target=&quot;_NEW&quot;&gt;\nhttp://desibbrg.org/images/25820414740435966725.jpg&lt;/a&gt;\n &lt;a href=&quot;\nhttp://desibbrg.org/images/14612730488763078326.jpg&quot; rel=&quot;nofollow&quot; target=&quot;_NEW&quot;&gt;\nhttp://desibbrg.org/images/14612730488763078326.jpg&lt;/a&gt;\n &lt;a href=&quot;\nhttp://desibbrg.org/images/78721564577380067411.jpg&quot; rel=&quot;nofollow&quot; target=&quot;_NEW&quot;&gt;\nhttp://desibbrg.org/images/78721564577380067411.jpg&lt;/a&gt;\n\nInfo - \nCAST - \nAnkush Choudhari\nSharvari Pille\nSanjay Khapare\nRamesh Vani\n\nMedia Info - \nGeneral\nComplete name                    : Gopala Re Gopala ~ Marathi Natak ~ 1CD ~ XviD ~ VCDRip.avi\nFormat                           : AVI\nFormat/Info                      : Audio Video Interleave\nFile size                        : 699 MiB\nDuration                         : 2h 25mn\nOverall bit rate                 : 673 Kbps\n\nVideo\nID                               : 0\nFormat                           : MPEG-4 Visual\nFormat profile                   : Advanced Simple@L5\nCodec ID                         : XVID\nCodec ID/Hint                    : XviD\nBit rate                         : 560 Kbps\nWidth                            : 640 pixels\nHeight                           : 480 pixels\nDisplay aspect ratio             : 4:3\nFrame rate                       : 25.000 fps\nColor space                      : YUV\nChroma subsampling               : 4:2:0\nBit depth                        : 8 bits\nScan type                        : Progressive\nBits/(Pixel*Frame)               : 0.073\nStream size                      : 581 MiB (83%)\nWriting library                  : XviD 1.2.1 (UTC 2008-12-04)\n\nAudio\nID                               : 1\nFormat                           : MPEG Audio\nFormat version                   : Version 1\nFormat profile                   : Layer 3\nMode                             : Joint stereo\nMode extension                   : MS Stereo\nCodec ID                         : 55\nCodec ID/Hint                    : MP3\nBit rate                         : 101 Kbps\nNominal bit rate                 : 128 Kbps\nChannel(s)                       : 2 channels\nSampling rate                    : 48.0 KHz\nStream size                      : 105 MiB (15%)\n\nRipper : san.kad23\n\nSeeding 24x7... Extreme Seeding...\n\n\nEnjoy!\n","torrent":{"xt":"urn:btih:d3b11422d9f1e8c3a5703aa2a7050deca6d903f8","amp;dn":"%5BMARATHI%5D+Gopala+Re+Gopala+1CD+VCDRip+XViD+%28Marathi+Play%29","amp;tr":["udp%3A%2F%2Ftracker.openbittorrent.com%3A80","udp%3A%2F%2Fopen.demonii.com%3A1337","udp%3A%2F%2Ftracker.coppersurfer.tk%3A6969","udp%3A%2F%2Fexodus.desync.com%3A6969"],"infoHash":"d3b11422d9f1e8c3a5703aa2a7050deca6d903f8","infoHashBuffer":{"type":"Buffer","data":[211,177,20,34,217,241,232,195,165,112,58,162,167,5,13,236,166,217,3,248]},"announce":[],"urlList":[]}}